<?xml version="1.0" encoding="utf-8"?>
<!-- Generator: Adobe Illustrator 19.1.0, SVG Export Plug-In . SVG Version: 6.00 Build 0)  -->
<svg version="1.1" xmlns="http://www.w3.org/2000/svg" xmlns:xlink="http://www.w3.org/1999/xlink" x="0px" y="0px"
	 viewBox="0 0 308 168" style="enable-background:new 0 0 308 168;" xml:space="preserve">
<style type="text/css">
	.st0{display:none;}
	.st1{display:inline;fill:#2D3E50;}
	.st2{fill:#58799C;}
	.st3{fill:#83B5E9;}
	.st4{fill:url(#SVGID_1_);}
	.st5{fill:#FFFFFF;}
</style>
<g id="Layer_2" class="st0">
	<rect class="st1" width="308" height="168"/>
</g>
<g id="Layer_1">
	<path class="st2" d="M81.8,63.7c-15.3-8.5-29.5-21.7-60-26.1l37.5,65L81.8,63.7z"/>
	<path class="st3" d="M90.4,52.2l19.5-35.8H10l8.2,15.1C55,34.5,71.7,46,90.4,52.2z"/>
	<linearGradient id="SVGID_1_" gradientUnits="userSpaceOnUse" x1="68.0251" y1="29.2539" x2="40.7076" y2="56.5714">
		<stop  offset="0" style="stop-color:#83B5E9"/>
		<stop  offset="0.1" style="stop-color:#83B5E9"/>
		<stop  offset="0.2728" style="stop-color:#81B2E5"/>
		<stop  offset="0.4617" style="stop-color:#79A7D7"/>
		<stop  offset="0.6582" style="stop-color:#6D96C2"/>
		<stop  offset="0.8588" style="stop-color:#5C7FA3"/>
		<stop  offset="0.9" style="stop-color:#58799C"/>
		<stop  offset="1" style="stop-color:#58799C"/>
	</linearGradient>
	<path class="st4" d="M89.1,50.4c-18.4-5.7-34.8-16.3-71-19.2l3.9,6.7c30.2,4.3,44.2,17.3,59.4,25.8L89.1,50.4z"/>
	<path class="st2" d="M0,12.3l59.2,102.5l59.2-102.5H0z M10.2,17.3h98l-49,84.9L10.2,17.3z"/>
	<g>
		<path class="st3" d="M57.3,158.8v-27.4h2.6v27.4H57.3z"/>
		<path class="st3" d="M77.2,134.9L77.2,134.9l-0.1,23.9h-2.6v-27.4h2.9l15.8,23.9h0.1v-23.9h2.6v27.4h-3L77.2,134.9z"/>
		<path class="st3" d="M110.8,150.6c0.1,1.2,0.4,2.2,0.8,3.1c0.4,0.8,1,1.5,1.7,2.1c0.7,0.5,1.5,0.9,2.4,1.2
			c0.9,0.2,1.9,0.4,2.9,0.4c1.2,0,2.3-0.2,3.2-0.5c0.9-0.3,1.6-0.7,2.2-1.2c0.6-0.5,1-1.1,1.2-1.8c0.3-0.7,0.4-1.4,0.4-2.2
			c0-1.1-0.2-1.9-0.7-2.6c-0.5-0.7-1.1-1.2-1.9-1.6c-0.8-0.4-1.7-0.8-2.7-1c-1-0.3-2-0.5-3.1-0.7c-1.1-0.2-2.1-0.5-3.1-0.9
			c-1-0.3-1.9-0.8-2.7-1.3c-0.8-0.6-1.4-1.3-1.9-2.1c-0.5-0.9-0.7-2-0.7-3.3c0-0.9,0.2-1.8,0.6-2.7c0.4-0.9,1-1.7,1.7-2.4
			c0.8-0.7,1.7-1.2,2.9-1.6c1.2-0.4,2.5-0.6,4-0.6c1.5,0,2.9,0.2,4,0.6c1.2,0.4,2.1,1,2.9,1.8c0.8,0.7,1.3,1.6,1.7,2.6
			c0.4,1,0.6,2,0.6,3.2h-2.5c0-1-0.2-1.9-0.6-2.7c-0.4-0.8-0.9-1.4-1.5-1.9c-0.6-0.5-1.4-0.8-2.2-1.1c-0.8-0.2-1.6-0.3-2.5-0.3
			c-1.3,0-2.4,0.2-3.3,0.6c-0.9,0.4-1.6,0.8-2.1,1.4c-0.5,0.6-0.9,1.2-1.1,1.9c-0.2,0.7-0.2,1.4-0.1,2.1c0.2,0.9,0.5,1.6,1.1,2.1
			c0.6,0.5,1.2,1,2.1,1.3c0.8,0.3,1.7,0.6,2.7,0.8c1,0.2,2,0.4,3,0.7c1,0.2,2,0.5,2.9,0.9c1,0.3,1.8,0.8,2.5,1.3
			c0.7,0.6,1.3,1.3,1.8,2.1c0.4,0.9,0.7,2,0.7,3.3c0,2.5-0.9,4.5-2.6,5.9c-1.7,1.4-4.2,2.1-7.4,2.1c-1.4,0-2.7-0.2-4-0.6
			c-1.2-0.4-2.3-0.9-3.2-1.7s-1.6-1.7-2.1-2.8c-0.5-1.1-0.7-2.4-0.7-3.9H110.8z"/>
		<path class="st3" d="M138.1,131.5H158v2.2h-8.7v25.2h-2.6v-25.2h-8.7V131.5z"/>
		<path class="st3" d="M170.2,158.8v-27.4h2.6v27.4H170.2z"/>
		<path class="st3" d="M185.1,131.5H205v2.2h-8.7v25.2h-2.6v-25.2h-8.7V131.5z"/>
		<path class="st3" d="M216.3,131.5h2.6v16.3c0,3.4,0.6,5.8,1.9,7.3c1.3,1.5,3.3,2.2,6.1,2.2c1.5,0,2.7-0.2,3.7-0.6
			c1-0.4,1.9-1,2.5-1.8c0.6-0.8,1.1-1.8,1.4-3s0.4-2.6,0.4-4.2v-16.3h2.6v17.1c0,3.6-0.9,6.3-2.6,8.2c-1.8,1.9-4.4,2.8-8,2.8
			c-3.6,0-6.2-1-8-2.9c-1.7-1.9-2.6-4.6-2.6-8.1V131.5z"/>
		<path class="st3" d="M248.9,131.5h19.9v2.2h-8.7v25.2h-2.6v-25.2h-8.7V131.5z"/>
		<path class="st3" d="M280.1,158.8v-27.4h18.2v2.2h-15.6v9.9h14.1v2.2h-14.1v10.9h16v2.2H280.1z"/>
	</g>
	<g>
		<path class="st5" d="M148.8,78.4c-0.3,1.9-1.1,5.4-2.4,10.2l-6.6,25.2h-5.3l-13-42.5h5.2l7.3,24.9c1.2,4,2.2,7.6,3,10.8h0.1
			c0.4-2,0.9-3.9,1.4-5.7c0.5-1.9,0.9-3.5,1.3-5l6.4-25h5.2l6.4,25c1.6,6,2.5,9.6,2.7,10.7h0.1c0.7-3,1.7-6.6,3-10.8l7.3-24.9h5.2
			l-13,42.5h-5.2l-6.6-25.2c-1.2-4.7-2-8.1-2.4-10.2H148.8z"/>
		<path class="st5" d="M203.3,110.5h-0.1c-0.4,0.5-0.9,1-1.5,1.5c-0.6,0.5-1.3,0.9-2.1,1.3s-1.7,0.7-2.6,0.9c-1,0.2-2,0.3-3,0.3
			c-1.5,0-2.8-0.2-4-0.7c-1.2-0.4-2.3-1.1-3.1-1.9s-1.6-1.9-2-3.1c-0.5-1.2-0.7-2.6-0.7-4.1c0-1.5,0.3-2.8,0.8-4
			c0.5-1.2,1.3-2.2,2.3-3c1-0.8,2.1-1.5,3.5-1.9c1.4-0.4,2.9-0.7,4.5-0.7c1.6,0,3,0.2,4.3,0.4s2.5,0.6,3.6,1h0.1v-2.1
			c0-0.8-0.1-1.6-0.2-2.2s-0.3-1.2-0.5-1.7c-0.6-1-1.4-1.9-2.6-2.5c-1.2-0.7-2.8-1-4.9-1c-1.5,0-3,0.1-4.3,0.4
			c-1.3,0.3-2.7,0.7-4,1.2v-4.1c0.5-0.3,1.1-0.5,1.8-0.7c0.7-0.2,1.4-0.4,2.2-0.6c0.8-0.2,1.6-0.3,2.4-0.4c0.8-0.1,1.7-0.1,2.5-0.1
			c3,0,5.5,0.5,7.5,1.6c1.9,1.1,3.3,2.5,4.2,4.3c0.3,0.7,0.5,1.4,0.7,2.2s0.2,1.7,0.2,2.7v20.1h-4.1L203.3,110.5z M203,100.6
			c-0.9-0.3-2-0.5-3.2-0.7c-1.2-0.2-2.6-0.4-4.1-0.4c-2.1,0-3.7,0.4-4.9,1.3s-1.8,2.3-1.8,4.1c0,0.9,0.1,1.7,0.4,2.4
			s0.7,1.3,1.2,1.7c0.5,0.5,1.1,0.8,1.8,1c0.7,0.2,1.5,0.3,2.3,0.3c1.1,0,2-0.2,2.9-0.5s1.7-0.7,2.4-1.1c0.7-0.4,1.3-0.8,1.8-1.3
			c0.5-0.4,0.9-0.8,1.1-1V100.6z"/>
		<path class="st5" d="M236.6,113.9c-0.4,0.2-1.1,0.3-1.9,0.5s-1.9,0.2-3.1,0.3c-1.6,0-3-0.2-4.1-0.6s-2.1-1-2.9-1.7
			c-0.8-0.7-1.3-1.6-1.7-2.7s-0.6-2.2-0.6-3.5V87.9h-5.8v-4.2h5.8v-8.3h4.9v8.3h9v4.2h-9v17.6c0,0.7,0.1,1.3,0.3,1.9s0.5,1.1,1,1.5
			s1,0.8,1.7,1c0.7,0.2,1.5,0.4,2.4,0.4c0.7,0,1.3-0.1,2.1-0.2c0.7-0.1,1.4-0.2,2-0.4V113.9z"/>
		<path class="st5" d="M260.8,110.4c1.6,0,3.1-0.1,4.5-0.4c1.3-0.3,2.7-0.6,4-1.1v4.1c-1.1,0.5-2.4,0.9-4,1.3s-3.3,0.5-5.1,0.5
			c-2.2,0-4.2-0.3-6.1-0.8c-1.9-0.5-3.5-1.4-4.9-2.7c-1.4-1.2-2.5-2.8-3.3-4.8s-1.2-4.4-1.2-7.2c0-2.8,0.4-5.1,1.1-7.2
			s1.8-3.7,3-5.1c1.3-1.4,2.7-2.4,4.4-3c1.6-0.7,3.4-1,5.2-1c1.7,0,3.3,0.3,4.7,0.8s2.7,1.4,3.8,2.6s1.9,2.8,2.5,4.7
			s0.9,4.2,0.9,6.9c0,0.3,0,0.5,0,0.7s0,0.6,0,1.2h-20.8c0,1.9,0.3,3.6,0.9,4.9s1.4,2.4,2.4,3.3c1,0.8,2.2,1.4,3.5,1.8
			S259.3,110.4,260.8,110.4z M258.2,87.1c-1.1,0-2.2,0.2-3.2,0.7c-1,0.4-1.8,1-2.6,1.8c-0.7,0.8-1.3,1.7-1.8,2.7s-0.7,2.1-0.8,3.3
			h15.4c0-1.2-0.2-2.3-0.5-3.3s-0.8-1.9-1.4-2.7c-0.6-0.8-1.3-1.4-2.2-1.8C260.4,87.4,259.4,87.1,258.2,87.1z"/>
		<path class="st5" d="M298.6,87.7h-0.4c-1.2,0-2.3,0.1-3.4,0.3c-1.1,0.2-2.2,0.5-3.2,1c-1,0.4-1.9,1-2.7,1.6
			c-0.8,0.6-1.5,1.4-2,2.3v21h-4.9V83.7h3.8l1,4.8h0.1c0.5-0.8,1.1-1.5,1.8-2.2s1.5-1.3,2.4-1.8s1.9-0.9,2.9-1.2
			c1.1-0.3,2.2-0.4,3.3-0.4c0.2,0,0.4,0,0.7,0c0.2,0,0.4,0,0.6,0V87.7z"/>
	</g>
	<g>
		<path class="st5" d="M157.7,18.3c-0.3,1.9-1.1,5.4-2.4,10.2l-6.6,25.2h-5.3l-13-42.5h5.2l7.3,24.9c1.2,4,2.2,7.6,3,10.8h0.1
			c0.4-2,0.9-3.9,1.4-5.7c0.5-1.9,0.9-3.5,1.3-5l6.4-25h5.2l6.4,25c1.6,6,2.5,9.6,2.7,10.7h0.1c0.7-3,1.7-6.6,3-10.8l7.3-24.9h5.2
			l-13,42.5h-5.2l-6.6-25.2c-1.2-4.7-2-8.1-2.4-10.2H157.7z"/>
		<path class="st5" d="M219,38.7c0,2.4-0.3,4.5-1,6.5c-0.7,1.9-1.6,3.6-2.9,5c-1.2,1.4-2.7,2.5-4.5,3.2c-1.8,0.8-3.7,1.1-5.9,1.1
			c-2.2,0-4.2-0.4-6-1.1s-3.3-1.8-4.5-3.2c-1.2-1.4-2.2-3.1-2.8-5c-0.7-1.9-1-4.1-1-6.5c0-2.4,0.3-4.6,1-6.5c0.7-1.9,1.6-3.6,2.9-5
			c1.2-1.4,2.7-2.5,4.5-3.2s3.7-1.1,5.9-1.1c2.2,0,4.2,0.4,6,1.1s3.3,1.8,4.5,3.2c1.2,1.4,2.2,3.1,2.8,5S219,36.3,219,38.7z
			 M213.9,38.7c0-1.9-0.2-3.5-0.7-5s-1.1-2.7-1.9-3.7s-1.8-1.8-2.9-2.3S206,27,204.7,27c-1.3,0-2.6,0.3-3.7,0.8s-2.1,1.3-2.9,2.3
			s-1.4,2.2-1.9,3.7s-0.7,3.1-0.7,5c0,1.8,0.2,3.5,0.7,4.9s1.1,2.7,1.9,3.7s1.8,1.8,2.9,2.3c1.1,0.5,2.3,0.8,3.7,0.8
			s2.6-0.3,3.7-0.8c1.1-0.5,2.1-1.3,2.9-2.3s1.4-2.2,1.9-3.7S213.9,40.5,213.9,38.7z"/>
		<path class="st5" d="M246.6,27.6h-0.4c-1.2,0-2.3,0.1-3.4,0.3c-1.1,0.2-2.2,0.5-3.2,1c-1,0.4-1.9,1-2.7,1.6
			c-0.8,0.6-1.5,1.4-2,2.3v21h-4.9V23.6h3.8l1,4.8h0.1c0.5-0.8,1.1-1.5,1.8-2.2c0.7-0.7,1.5-1.3,2.4-1.8s1.9-0.9,2.9-1.2
			c1.1-0.3,2.2-0.4,3.3-0.4c0.2,0,0.4,0,0.7,0c0.2,0,0.4,0,0.6,0V27.6z"/>
		<path class="st5" d="M255.4,53.7v-46h4.9v46H255.4z"/>
		<path class="st5" d="M271.7,39c0-2.1,0.2-4,0.6-5.6c0.4-1.6,1-3,1.6-4.2c0.7-1.2,1.5-2.2,2.4-3c0.9-0.8,1.9-1.5,2.8-2
			c1-0.5,2-0.9,3-1.1c1-0.2,2-0.3,2.8-0.3c1.8,0,3.4,0.3,4.8,0.9c1.4,0.6,2.6,1.5,3.6,2.7h0.1V7.8h4.9v46h-3.7l-1-3.4h-0.1
			c-0.4,0.5-0.8,1-1.3,1.5c-0.5,0.5-1.1,0.9-1.8,1.3c-0.7,0.4-1.5,0.7-2.4,1s-1.9,0.4-3.1,0.4c-1.7,0-3.3-0.3-4.9-0.8
			c-1.6-0.6-3-1.5-4.2-2.7c-1.2-1.2-2.2-2.8-3-4.8C272,44.2,271.7,41.9,271.7,39z M276.8,39c0,1.7,0.2,3.3,0.6,4.7
			c0.4,1.4,1,2.6,1.7,3.6c0.7,1,1.7,1.7,2.7,2.3c1.1,0.5,2.3,0.8,3.7,0.8c1,0,2-0.1,2.8-0.4c0.8-0.3,1.6-0.6,2.3-1
			c0.7-0.4,1.2-0.9,1.7-1.3c0.5-0.5,0.9-0.9,1.1-1.3V30.4c-1-1-2.2-1.9-3.5-2.5s-2.8-0.9-4.3-0.9c-0.9,0-1.9,0.2-2.9,0.5
			c-1,0.3-2,1-2.9,1.9c-0.9,0.9-1.6,2.1-2.2,3.7S276.8,36.6,276.8,39z"/>
	</g>
</g>
</svg>
